<svg xmlns="http://www.w3.org/2000/svg" viewBox="0 0 65 32">
  <path d="M 6.836 3.39 C 7.63 2.418 8.611 1.546 9.784 0.771 C 9.974 0.646 10.148 0.664 10.307 0.825 C 10.943 1.467 11.296 2.175 11.367 2.95 C 11.377 3.048 11.356 3.146 11.306 3.231 C 8.564 8.063 6.446 12.691 6.561 17.995 C 6.565 18.105 6.481 18.199 6.371 18.207 C 4.411 18.351 2.442 18.092 0.585 17.447 C 0.449 17.398 0.368 17.259 0.394 17.117 C 1.407 11.986 3.554 7.41 6.836 3.39 Z" fill="#673ae4"/>
  <path d="M 16.761 17.593 C 14.607 19.264 12.311 20.745 9.901 22.02 C 7.589 23.243 5.096 24.405 2.524 24.465 C 1.096 24.499 0.454 23.772 0.191 22.371 C -0.057 21.048 -0.063 19.668 0.173 18.231 C 0.178 18.201 0.195 18.175 0.221 18.159 C 0.246 18.143 0.277 18.139 0.306 18.147 C 4.672 19.406 9.478 18.317 13.49 16.099 C 15.048 15.236 16.555 15.39 17.581 16.994 C 17.833 17.39 17.731 17.532 17.273 17.421 C 17.236 17.411 17.148 17.43 17.009 17.478 C 16.921 17.503 16.837 17.542 16.761 17.593 Z M 11.709 21.415 C 13.405 20.575 15.102 19.528 16.799 18.271 C 16.967 18.138 17.192 18.102 17.394 18.174 C 17.49 18.205 17.548 18.302 17.531 18.401 C 16.899 22.038 15.707 25.433 13.954 28.584 C 13.454 29.498 12.845 30.348 12.141 31.116 C 11.948 31.324 11.636 31.371 11.391 31.228 C 10.985 30.994 10.645 30.602 10.371 30.051 C 10.221 29.753 10.223 29.263 10.374 28.581 C 10.834 26.533 11.187 24.277 11.434 21.811 C 11.445 21.638 11.551 21.486 11.709 21.415 Z M 26.914 22.479 L 26.914 9.78 L 34.696 9.78 L 34.696 11.63 L 28.891 11.63 L 28.891 14.922 L 33.371 14.922 L 33.371 16.772 L 28.891 16.772 L 28.891 22.478 L 26.914 22.478 Z M 35.958 22.479 L 35.958 13.517 L 37.854 13.517 L 37.854 22.479 Z M 35.958 11.776 L 35.958 9.78 L 37.854 9.78 L 37.854 11.775 L 35.958 11.775 Z M 40.015 22.479 L 40.015 13.517 L 41.684 13.517 L 41.82 14.769 C 42.183 14.334 42.57 13.986 42.98 13.726 C 43.398 13.466 43.849 13.336 44.332 13.336 C 44.477 13.336 44.614 13.351 44.74 13.381 L 44.577 15.35 C 44.366 15.3 44.15 15.275 43.933 15.277 C 43.498 15.277 43.099 15.377 42.736 15.577 C 42.379 15.77 42.126 15.991 41.974 16.238 L 41.974 22.478 L 40.015 22.478 Z M 48.881 22.66 C 48.319 22.66 47.862 22.551 47.511 22.333 C 47.183 22.133 46.919 21.844 46.75 21.499 C 46.593 21.164 46.513 20.799 46.514 20.429 L 46.514 15.032 L 45.09 15.032 L 45.262 13.517 L 46.514 13.517 L 46.514 11.404 L 48.41 11.204 L 48.41 13.517 L 50.605 13.517 L 50.605 15.032 L 48.41 15.032 L 48.41 19.467 C 48.41 19.987 48.44 20.365 48.5 20.601 C 48.56 20.831 48.709 20.976 48.945 21.036 C 49.181 21.096 49.555 21.127 50.069 21.127 L 50.577 21.127 L 50.414 22.66 Z M 54.048 22.66 C 53.566 22.669 53.089 22.556 52.661 22.333 C 52.263 22.117 51.931 21.797 51.699 21.408 C 51.469 21.015 51.355 20.553 51.355 20.021 C 51.355 19.513 51.469 19.081 51.699 18.724 C 51.929 18.361 52.234 18.058 52.615 17.817 C 53.005 17.571 53.426 17.378 53.867 17.245 C 54.327 17.1 54.792 16.995 55.264 16.928 C 55.735 16.861 56.174 16.825 56.579 16.818 C 56.573 16.111 56.422 15.634 56.125 15.386 C 55.829 15.132 55.379 15.005 54.774 15.005 C 54.411 15.005 54.039 15.059 53.658 15.168 C 53.278 15.271 52.848 15.468 52.37 15.758 L 52.153 14.216 C 52.609 13.941 53.1 13.727 53.613 13.581 C 54.155 13.423 54.717 13.344 55.282 13.345 C 56.002 13.345 56.597 13.472 57.069 13.726 C 57.54 13.98 57.894 14.4 58.129 14.986 C 58.366 15.573 58.484 16.359 58.484 17.345 L 58.484 19.431 C 58.484 19.866 58.502 20.208 58.538 20.456 C 58.58 20.698 58.668 20.87 58.801 20.973 C 58.934 21.076 59.137 21.127 59.409 21.127 L 59.626 21.127 L 59.391 22.66 L 58.973 22.66 C 58.526 22.66 58.163 22.612 57.885 22.515 C 57.636 22.432 57.409 22.293 57.223 22.107 C 57.048 21.916 56.904 21.699 56.797 21.463 C 56.476 21.826 56.077 22.116 55.599 22.333 C 55.112 22.554 54.583 22.666 54.049 22.66 Z M 54.628 21.172 C 54.968 21.172 55.315 21.088 55.672 20.919 C 56.035 20.749 56.34 20.513 56.588 20.211 L 56.588 18.107 C 55.911 18.137 55.328 18.219 54.838 18.352 C 54.354 18.479 53.978 18.672 53.713 18.932 C 53.453 19.192 53.323 19.525 53.323 19.93 C 53.323 20.365 53.438 20.683 53.667 20.882 C 53.897 21.076 54.217 21.172 54.629 21.172 Z M 63.17 22.66 C 62.613 22.66 62.165 22.554 61.827 22.343 C 61.503 22.147 61.244 21.86 61.083 21.517 C 60.932 21.171 60.854 20.798 60.856 20.42 L 60.856 8.874 L 62.752 8.874 L 62.752 19.485 C 62.752 19.981 62.782 20.347 62.842 20.583 C 62.909 20.813 63.033 20.961 63.215 21.027 C 63.402 21.094 63.677 21.127 64.04 21.127 L 63.822 22.66 L 63.169 22.66 Z" fill="#673ae4"/>
</svg>
