<svg xmlns="http://www.w3.org/2000/svg" viewBox="0 0 32 32">
  <path d="M 12.836 3.39 C 13.63 2.418 14.611 1.546 15.784 0.771 C 15.974 0.646 16.148 0.664 16.307 0.825 C 16.943 1.467 17.296 2.175 17.367 2.95 C 17.377 3.048 17.356 3.146 17.306 3.231 C 14.564 8.063 12.446 12.691 12.561 17.995 C 12.565 18.105 12.481 18.199 12.371 18.207 C 10.411 18.351 8.442 18.092 6.585 17.447 C 6.449 17.398 6.368 17.259 6.394 17.117 C 7.407 11.986 9.554 7.41 12.836 3.39 Z" fill="#673ae4"/>
  <path d="M 22.761 17.593 C 20.607 19.264 18.311 20.745 15.901 22.02 C 13.589 23.243 11.096 24.405 8.524 24.465 C 7.096 24.499 6.454 23.772 6.191 22.371 C 5.943 21.048 5.937 19.668 6.173 18.231 C 6.178 18.201 6.195 18.175 6.221 18.159 C 6.246 18.143 6.277 18.139 6.306 18.147 C 10.672 19.406 15.478 18.317 19.49 16.099 C 21.048 15.236 22.555 15.39 23.581 16.994 C 23.833 17.39 23.731 17.532 23.273 17.421 C 23.236 17.411 23.148 17.43 23.009 17.478 C 22.921 17.503 22.837 17.542 22.761 17.593 Z M 17.709 21.415 C 19.405 20.575 21.102 19.528 22.799 18.271 C 22.967 18.138 23.192 18.102 23.394 18.174 C 23.49 18.205 23.548 18.302 23.531 18.401 C 22.899 22.038 21.707 25.433 19.954 28.584 C 19.454 29.498 18.845 30.348 18.141 31.116 C 17.948 31.324 17.636 31.371 17.391 31.228 C 16.985 30.994 16.645 30.602 16.371 30.051 C 16.221 29.753 16.223 29.263 16.374 28.581 C 16.834 26.533 17.187 24.277 17.434 21.811 C 17.445 21.638 17.551 21.486 17.709 21.415 Z" fill="#673ae4"/>
</svg>
